<svg width="28" height="28" viewBox="0 0 28 28" fill="none" xmlns="http://www.w3.org/2000/svg">
<rect x="0.5" y="0.5" width="27" height="27" rx="2.5" stroke="#AAAAAA"/>
<g clip-path="url(#clip0_4701_35129)">
<path d="M7.5 17.5L11 11.5L16 20L20.5 8" stroke="#AAAAAA"/>
<path d="M12.3289 11.6582C12.3289 12.4866 11.6573 13.1582 10.8289 13.1582C10.0005 13.1582 9.32889 12.4866 9.32889 11.6582C9.32889 10.8297 10.0005 10.1582 10.8289 10.1582C11.6573 10.1582 12.3289 10.8297 12.3289 11.6582Z" fill="#AAAAAA"/>
<path d="M17.5 19.5C17.5 20.3284 16.8285 21 16 21C15.1716 21 14.5 20.3284 14.5 19.5C14.5 18.6716 15.1716 18 16 18C16.8285 18 17.5 18.6716 17.5 19.5Z" fill="#AAAAAA"/>
<path d="M22 7C22 7.82843 21.3285 8.5 20.5 8.5C19.6716 8.5 19 7.82843 19 7C19 6.17157 19.6716 5.5 20.5 5.5C21.3285 5.5 22 6.17157 22 7Z" fill="#AAAAAA"/>
<path d="M9 17.5C9 18.3284 8.32843 19 7.5 19C6.67157 19 6 18.3284 6 17.5C6 16.6716 6.67157 16 7.5 16C8.32843 16 9 16.6716 9 17.5Z" fill="#AAAAAA"/>
</g>
<defs>
<clipPath id="clip0_4701_35129">
<rect width="16" height="16" fill="white" transform="translate(6 5)"/>
</clipPath>
</defs>
</svg>
