<svg width="28" height="28" viewBox="0 0 28 28" fill="none" xmlns="http://www.w3.org/2000/svg">
<rect width="28" height="28" rx="3" fill="#308099"/>
<path d="M14 5.9C13.6849 5.9 13.4294 6.15546 13.4294 6.47059V7.79179C13.3066 7.78552 13.1831 7.78235 13.0588 7.78235C9.10511 7.78235 5.9 10.9875 5.9 14.9412C5.9 18.8949 9.10511 22.1 13.0588 22.1C17.0125 22.1 20.2176 18.8949 20.2176 14.9412C20.2176 14.8169 20.2145 14.6934 20.2082 14.5706H21.5294C21.8445 14.5706 22.1 14.3151 22.1 14C22.1 9.52648 18.4735 5.9 14 5.9ZM13.0588 8.92353C13.1833 8.92353 13.3069 8.9273 13.4294 8.93474V14C13.4294 14.3151 13.6849 14.5706 14 14.5706H19.0653C19.0727 14.6931 19.0765 14.8167 19.0765 14.9412C19.0765 18.2647 16.3823 20.9588 13.0588 20.9588C9.73537 20.9588 7.04118 18.2647 7.04118 14.9412C7.04118 11.6177 9.73537 8.92353 13.0588 8.92353ZM20.9358 13.4294H14.5706V7.06423C17.9587 7.33915 20.6609 10.0413 20.9358 13.4294Z" fill="#E9EBEF" stroke="#AAAAAA" stroke-width="0.2"/>
</svg>
