<svg width="18" height="15" viewBox="0 0 18 15" fill="none" xmlns="http://www.w3.org/2000/svg">
<path d="M14.8219 3.90936H2.22188C1.0125 3.90936 0 4.89374 0 6.13124V12.0375C0 13.2469 0.984375 14.2312 2.22188 14.2312H14.8219C16.0313 14.2312 17.0156 13.2469 17.0156 12.0375V6.13124C17.0156 4.92186 16.0313 3.90936 14.8219 3.90936ZM1.26562 12.0375V6.13124C1.26562 5.62499 1.6875 5.17499 2.22188 5.17499H7.875V12.9656H2.22188C1.71563 12.9656 1.26562 12.5437 1.26562 12.0375ZM15.7781 12.0375C15.7781 12.5437 15.3562 12.9656 14.85 12.9656H9.14062V5.17499H14.8219C15.3281 5.17499 15.75 5.59686 15.75 6.13124V12.0375H15.7781Z" fill="#072040"/>
<path d="M0.64707 1.2375H16.3971C16.7346 1.2375 17.0158 0.95625 17.0158 0.61875C17.0158 0.28125 16.7346 0 16.3971 0H0.64707C0.30957 0 0.0283203 0.28125 0.0283203 0.61875C0.0283203 0.95625 0.30957 1.2375 0.64707 1.2375Z" fill="#072040"/>
</svg>
