<svg width="17" height="18" viewBox="0 0 17 18" fill="none" xmlns="http://www.w3.org/2000/svg">
<path d="M9 0.9C8.68492 0.9 8.42941 1.15546 8.42941 1.47059V2.79179C8.30665 2.78552 8.18311 2.78235 8.05882 2.78235C4.10511 2.78235 0.9 5.98746 0.9 9.94118C0.9 13.8949 4.10511 17.1 8.05882 17.1C12.0125 17.1 15.2176 13.8949 15.2176 9.94118C15.2176 9.8169 15.2145 9.69336 15.2082 9.57059H16.5294C16.8445 9.57059 17.1 9.31509 17.1 9C17.1 4.52648 13.4735 0.9 9 0.9ZM8.05882 3.92353C8.18331 3.92353 8.30691 3.9273 8.42941 3.93474V9C8.42941 9.31509 8.68491 9.57059 9 9.57059H14.0653C14.0727 9.6931 14.0765 9.81669 14.0765 9.94118C14.0765 13.2647 11.3823 15.9588 8.05882 15.9588C4.73537 15.9588 2.04118 13.2647 2.04118 9.94118C2.04118 6.61772 4.73537 3.92353 8.05882 3.92353ZM15.9358 8.42941H9.57059V2.06423C12.9587 2.33915 15.6609 5.04129 15.9358 8.42941Z" fill="#999999" stroke="#999999" stroke-width="0.2"/>
</svg>
