<svg width="22" height="20" viewBox="0 0 22 20" fill="none" xmlns="http://www.w3.org/2000/svg">
<path d="M18.9976 0.25H3.79896C3.04316 0.25 2.31832 0.59241 1.78389 1.2019C1.24946 1.8114 0.949219 2.63805 0.949219 3.5V16.5C0.949219 17.362 1.24946 18.1886 1.78389 18.7981C2.31832 19.4076 3.04316 19.75 3.79896 19.75H18.9976C19.7534 19.75 20.4782 19.4076 21.0126 18.7981C21.5471 18.1886 21.8473 17.362 21.8473 16.5V3.5C21.8473 2.63805 21.5471 1.8114 21.0126 1.2019C20.4782 0.59241 19.7534 0.25 18.9976 0.25ZM19.9475 16.5C19.9475 16.7873 19.8474 17.0629 19.6693 17.266C19.4911 17.4692 19.2495 17.5833 18.9976 17.5833H3.79896C3.54703 17.5833 3.30541 17.4692 3.12727 17.266C2.94913 17.0629 2.84905 16.7873 2.84905 16.5V3.5C2.84905 3.21268 2.94913 2.93713 3.12727 2.73397C3.30541 2.5308 3.54703 2.41667 3.79896 2.41667H18.9976C19.2495 2.41667 19.4911 2.5308 19.6693 2.73397C19.8474 2.93713 19.9475 3.21268 19.9475 3.5V16.5Z" fill="#999999"/>
<path d="M7.59835 8.91602C7.34642 8.91602 7.1048 9.03015 6.92666 9.23332C6.74852 9.43648 6.64844 9.71203 6.64844 9.99935V14.3327C6.64844 14.62 6.74852 14.8956 6.92666 15.0987C7.1048 15.3019 7.34642 15.416 7.59835 15.416C7.85028 15.416 8.0919 15.3019 8.27004 15.0987C8.44819 14.8956 8.54827 14.62 8.54827 14.3327V9.99935C8.54827 9.71203 8.44819 9.43648 8.27004 9.23332C8.0919 9.03015 7.85028 8.91602 7.59835 8.91602Z" fill="#999999"/>
<path d="M11.3991 6.75C11.1472 6.75 10.9056 6.86414 10.7274 7.0673C10.5493 7.27047 10.4492 7.54602 10.4492 7.83333V14.3333C10.4492 14.6207 10.5493 14.8962 10.7274 15.0994C10.9056 15.3025 11.1472 15.4167 11.3991 15.4167C11.6511 15.4167 11.8927 15.3025 12.0708 15.0994C12.249 14.8962 12.349 14.6207 12.349 14.3333V7.83333C12.349 7.54602 12.249 7.27047 12.0708 7.0673C11.8927 6.86414 11.6511 6.75 11.3991 6.75Z" fill="#999999"/>
<path d="M15.196 4.58398C14.9441 4.58398 14.7025 4.69812 14.5243 4.90129C14.3462 5.10445 14.2461 5.38 14.2461 5.66732V14.334C14.2461 14.6213 14.3462 14.8969 14.5243 15.1C14.7025 15.3032 14.9441 15.4173 15.196 15.4173C15.4479 15.4173 15.6896 15.3032 15.8677 15.1C16.0458 14.8969 16.1459 14.6213 16.1459 14.334V5.66732C16.1459 5.38 16.0458 5.10445 15.8677 4.90129C15.6896 4.69812 15.4479 4.58398 15.196 4.58398Z" fill="#999999"/>
</svg>
