<svg width="17" height="15" viewBox="0 0 17 15" fill="none" xmlns="http://www.w3.org/2000/svg">
<path opacity="0.4" d="M15.9799 1.66681L14.5987 0.315647C14.3913 0.113498 14.1104 0 13.8176 0C13.5247 0 13.2438 0.113498 13.0364 0.315647L12.0345 1.29579C11.9828 1.34654 11.9538 1.41523 11.9538 1.48684C11.9538 1.55845 11.9828 1.62714 12.0345 1.67788L14.5874 4.17532C14.6393 4.22584 14.7095 4.25421 14.7827 4.25421C14.8559 4.25421 14.9261 4.22584 14.978 4.17532L15.9799 3.19517C16.1865 2.99222 16.3026 2.71744 16.3026 2.43099C16.3026 2.14454 16.1865 1.86976 15.9799 1.66681ZM12.0996 8.23989L10.9674 9.3474C10.9046 9.41037 10.8691 9.49472 10.8684 9.58274V12.4014H1.8114V3.54127H8.31544C8.40542 3.5406 8.49164 3.50587 8.55601 3.44436L9.68814 2.33685C9.7358 2.29038 9.76828 2.23111 9.78146 2.16655C9.79463 2.10199 9.78791 2.03506 9.76213 1.97425C9.73636 1.91344 9.69269 1.86149 9.63669 1.82499C9.58068 1.78849 9.51485 1.76909 9.44756 1.76925H1.35855C0.998238 1.76925 0.652686 1.90928 0.397909 2.15851C0.143132 2.40775 0 2.74579 0 3.09827L0 12.8444C0 13.1968 0.143132 13.5349 0.397909 13.7841C0.652686 14.0334 0.998238 14.1734 1.35855 14.1734H11.3212C11.6815 14.1734 12.0271 14.0334 12.2819 13.7841C12.5366 13.5349 12.6798 13.1968 12.6798 12.8444V8.47523C12.6799 8.4094 12.6601 8.345 12.6228 8.29022C12.5855 8.23543 12.5324 8.19271 12.4702 8.1675C12.4081 8.14228 12.3396 8.1357 12.2736 8.14859C12.2077 8.16148 12.1471 8.19326 12.0996 8.23989Z" fill="#308099" fill-opacity="0.6"/>
<path d="M13.9482 4.79818C13.9998 4.84892 14.0288 4.91761 14.0288 4.98922C14.0288 5.06083 13.9998 5.12952 13.9482 5.18027L7.7668 11.2273L5.14028 11.5125C5.05812 11.5215 4.97494 11.5123 4.89692 11.4856C4.81889 11.4589 4.74801 11.4153 4.68956 11.3581C4.6311 11.3009 4.58656 11.2316 4.55924 11.1552C4.53192 11.0789 4.52253 10.9975 4.53176 10.9172L4.82328 8.34775L11.0047 2.30074C11.0565 2.25022 11.1268 2.22186 11.2 2.22186C11.2732 2.22186 11.3434 2.25022 11.3953 2.30074L13.9482 4.79818Z" fill="#308099"/>
</svg>
