<svg width="25" height="24" viewBox="0 0 25 24" fill="none" xmlns="http://www.w3.org/2000/svg">
<line x1="6.4375" y1="22" x2="6.4375" y2="2.00009" stroke="white"/>
<line x1="12.3447" y1="22" x2="12.3447" y2="2.00009" stroke="white"/>
<line x1="18.252" y1="22" x2="18.252" y2="2.00009" stroke="white"/>
<path d="M8.56325 17.0023C8.56325 18.1243 7.65367 19.0339 6.53164 19.0339C5.40961 19.0339 4.50002 18.1243 4.50002 17.0023C4.50002 15.8803 5.40961 14.9707 6.53164 14.9707C7.65367 14.9707 8.56325 15.8803 8.56325 17.0023Z" stroke="white"/>
<path d="M14.3967 8.66931C14.3967 9.79133 13.4872 10.7009 12.3651 10.7009C11.2431 10.7009 10.3335 9.79133 10.3335 8.66931C10.3335 7.54728 11.2431 6.63769 12.3651 6.63769C13.4872 6.63769 14.3967 7.54728 14.3967 8.66931Z" stroke="white"/>
<path d="M20.2298 16.6976C20.2298 17.8196 19.3202 18.7292 18.1981 18.7292C17.0761 18.7292 16.1665 17.8196 16.1665 16.6976C16.1665 15.5756 17.0761 14.666 18.1981 14.666C19.3202 14.666 20.2298 15.5756 20.2298 16.6976Z" stroke="white"/>
</svg>
