<svg width="13" height="12" viewBox="0 0 13 12" fill="none" xmlns="http://www.w3.org/2000/svg">
<path d="M11.0384 3.85481C10.6355 1.64766 8.30693 0 5.55111 0C2.49047 0 0.000352092 2.03269 0.000352092 4.53106C0.00494533 5.31423 0.245281 6.07786 0.690055 6.72249L0.0236798 8.73229C-0.00347354 8.81374 -0.00735918 8.90116 0.0124598 8.98471C0.0322789 9.06826 0.0750164 9.14462 0.135865 9.2052C0.196713 9.26578 0.273259 9.30818 0.356892 9.32764C0.440524 9.34709 0.527925 9.34282 0.609264 9.31531L2.95217 8.53671C3.30222 8.68674 3.66495 8.80527 4.03605 8.89088C4.84999 10.0981 6.42106 10.918 8.2223 10.918C8.98461 10.9204 9.73956 10.7688 10.4419 10.4724L12.4237 11.1302C12.4689 11.1455 12.5162 11.1532 12.5639 11.1533C12.633 11.153 12.701 11.1364 12.7625 11.1048C12.8239 11.0732 12.877 11.0275 12.9173 10.9715C12.9577 10.9154 12.9842 10.8506 12.9948 10.7823C13.0053 10.714 12.9995 10.6443 12.9778 10.5786L12.4163 8.88533C12.793 8.332 12.9962 7.67892 13 7.00952C13 5.71525 12.2265 4.56652 11.0384 3.85481ZM3.08787 7.95966L2.98389 7.9123L0.652362 8.68705L1.33623 6.62464L1.24805 6.50359C0.822064 5.93363 0.589067 5.2426 0.582957 4.53107C0.582957 2.35386 2.81165 0.582599 5.55111 0.582599C7.83188 0.582599 9.78263 1.8076 10.3513 3.51198C9.67496 3.23826 8.95188 3.09868 8.22229 3.10103C5.5878 3.10103 3.44459 4.85437 3.44459 7.00952C3.44495 7.41151 3.51988 7.80994 3.66557 8.18459C3.46904 8.12022 3.27618 8.04513 3.08787 7.95966H3.08787ZM12.3333 10.4865L10.4102 9.84799L10.3061 9.89549C9.65059 10.1884 8.94024 10.3384 8.2223 10.3354C5.90911 10.3354 4.02719 8.84338 4.02719 7.00953C4.02719 5.17568 5.90911 3.68362 8.2223 3.68362C10.5355 3.68362 12.4174 5.17568 12.4174 7.00952C12.4122 7.60737 12.2164 8.18797 11.8584 8.66685L11.7702 8.7879L12.3333 10.4865Z" fill="#308099"/>
</svg>
