<svg width="13" height="13" viewBox="0 0 13 13" fill="none" xmlns="http://www.w3.org/2000/svg">
<path d="M10.8104 9.20496C11.4683 8.23175 11.8192 7.08364 11.8179 5.90895C11.8179 2.65135 9.16656 0 5.90895 0C2.65135 0 0 2.65135 0 5.90895C0 9.16656 2.65076 11.8179 5.90895 11.8179C7.08246 11.8192 8.22944 11.4689 9.20201 10.8122L11.0574 12.6676C11.5006 13.1108 12.2215 13.1108 12.6647 12.6676C13.1137 12.2244 13.1137 11.5035 12.6647 11.0545L10.8104 9.20496ZM5.90895 10.6361C3.30192 10.6361 1.18179 8.51539 1.18179 5.90895C1.18179 3.30251 3.30192 1.18179 5.90895 1.18179C8.51598 1.18179 10.6361 3.3031 10.6361 5.90895C10.6361 8.5148 8.5148 10.6361 5.90895 10.6361Z" fill="#CAD7DD"/>
<path d="M2.95093 4.73159H4.13272V8.26928H2.95093V4.73159ZM5.31805 3.5498H6.49984V8.26928H5.31805V3.5498ZM7.68459 5.90925H8.86638V8.26928H7.68459V5.90925Z" fill="#072040"/>
</svg>
