<svg width="25" height="24" viewBox="0 0 25 24" fill="none" xmlns="http://www.w3.org/2000/svg">
<path fill-rule="evenodd" clip-rule="evenodd" d="M5.58087 10C6.68318 10 7.57678 10.8954 7.57678 12C7.57678 13.1046 6.68318 14 5.58087 14C4.47856 14 3.58496 13.1046 3.58496 12C3.58496 10.8954 4.47856 10 5.58087 10ZM12.5666 10C13.6689 10 14.5625 10.8954 14.5625 12C14.5625 13.1046 13.6689 14 12.5666 14C11.4642 14 10.5706 13.1046 10.5706 12C10.5706 10.8954 11.4642 10 12.5666 10ZM19.5522 10C20.6546 10 21.5482 10.8954 21.5482 12C21.5482 13.1046 20.6546 14 19.5522 14C18.4499 14 17.5563 13.1046 17.5563 12C17.5563 10.8954 18.4499 10 19.5522 10Z" fill="#464E51"/>
</svg>
