<svg width="20" height="18" viewBox="0 0 20 18" fill="none" xmlns="http://www.w3.org/2000/svg">
<path d="M15.8719 5.28629C16.168 5.11079 16.2677 4.72689 16.0709 4.44443C15.1081 3.06201 13.7525 1.99303 12.173 1.38056C10.3993 0.692747 8.44593 0.620491 6.6262 1.17538C4.80648 1.73026 3.2258 2.88014 2.13762 4.44064C1.04944 6.00114 0.516794 7.88185 0.6251 9.78121C0.733406 11.6806 1.47639 13.4885 2.7349 14.9152C3.99342 16.3419 5.69457 17.3046 7.56558 17.6491C9.43658 17.9935 11.3691 17.6997 13.0531 16.8147C14.5527 16.0266 15.778 14.8105 16.5775 13.3276C16.7408 13.0246 16.5982 12.6545 16.284 12.5138C15.9699 12.3731 15.6035 12.5153 15.4363 12.8163C14.7536 14.0451 13.7256 15.0531 12.4732 15.7112C11.0364 16.4663 9.3876 16.717 7.79126 16.4231C6.19492 16.1292 4.7435 15.3078 3.66973 14.0906C2.59596 12.8733 1.96205 11.3308 1.86964 9.71024C1.77724 8.0897 2.23169 6.48508 3.16012 5.15366C4.08856 3.82225 5.4372 2.84117 6.98979 2.36774C8.54238 1.89431 10.209 1.95596 11.7223 2.5428C13.0413 3.05428 14.1774 3.93888 14.9953 5.08216C15.1956 5.36212 15.5758 5.46179 15.8719 5.28629Z" fill="#C4C4C4"/>
<path d="M17.0715 6.91979C17.0772 7.1006 16.8897 7.22344 16.7262 7.14596L12.6854 5.23065C12.5148 5.14977 12.4985 4.91327 12.6565 4.8098L16.5563 2.25559C16.7142 2.15213 16.9245 2.26154 16.9305 2.45028L17.0715 6.91979Z" fill="#C4C4C4"/>
</svg>
