<svg width="13" height="13" viewBox="0 0 13 13" fill="none" xmlns="http://www.w3.org/2000/svg">
    <path d="M5.14801 10.14C2.39201 10.14 0.208008 7.90401 0.208008 5.20001C0.208008 2.49601 2.44401 0.26001 5.14801 0.26001C7.85201 0.26001 10.088 2.49601 10.088 5.20001C10.088 7.90401 7.90401 10.14 5.14801 10.14ZM5.14801 1.24801C2.96401 1.24801 1.24801 3.01601 1.24801 5.14801C1.24801 7.28001 3.01601 9.04801 5.14801 9.04801C7.28001 9.04801 9.04801 7.28001 9.04801 5.14801C9.04801 3.01601 7.33201 1.24801 5.14801 1.24801Z" fill="#292D34" fill-opacity="0.4"/>
    <path d="M12.1681 12.6881C12.0121 12.6881 11.9081 12.6361 11.8041 12.5321L8.11205 8.84005C7.90405 8.63205 7.90405 8.32005 8.11205 8.11205C8.32005 7.90405 8.63205 7.90405 8.84005 8.11205L12.5321 11.8041C12.7401 12.0121 12.7401 12.3241 12.5321 12.5321C12.4281 12.6361 12.2721 12.6881 12.1681 12.6881Z" fill="#292D34" fill-opacity="0.4"/>
</svg>
