<svg width="12" height="8" viewBox="0 0 12 8" fill="none" xmlns="http://www.w3.org/2000/svg">
<path fill-rule="evenodd" clip-rule="evenodd" d="M5.56872 6.07836L10.6024 1.04464C10.8602 0.786871 11.277 0.787492 11.5341 1.04464C11.7913 1.3018 11.7919 1.71858 11.5341 1.97635L6.50043 7.01007C6.24328 7.26722 5.82587 7.26722 5.56872 7.01007C5.31157 6.75291 5.31157 6.33551 5.56872 6.07836Z" fill="#53575E"/>
<path fill-rule="evenodd" clip-rule="evenodd" d="M5.4995 6.95532L0.465786 1.92161C0.208014 1.66384 0.208635 1.24705 0.465786 0.989902C0.722938 0.732751 1.13972 0.732129 1.3975 0.989902L6.43121 6.02361C6.68836 6.28077 6.68836 6.69817 6.43121 6.95532C6.17406 7.21247 5.75665 7.21248 5.4995 6.95532Z" fill="#53575E"/>
</svg>
