<svg width="13" height="16" viewBox="0 0 13 16" fill="none" xmlns="http://www.w3.org/2000/svg">
<path d="M0.456924 4.40101C0.135651 4.40101 -0.0871019 4.07621 0.0333643 3.77837C0.461112 2.72089 1.4986 1.97287 2.70763 1.97287H3.26653C3.47495 0.871916 4.44023 0 5.6214 0H6.59266C7.77307 0 8.73898 0.871339 8.94753 1.97287H9.50643C10.7155 1.97287 11.7529 2.72089 12.1807 3.77837C12.3012 4.07621 12.0784 4.40101 11.7571 4.40101H0.456924ZM6.59266 0.910553H5.6214C4.9567 0.910553 4.39246 1.35776 4.20251 1.97287H8.01154C7.8216 1.35776 7.25736 0.910553 6.59266 0.910553Z" fill="#CDE1E7"/>
<path d="M10.5065 14.3608C10.4558 15.0724 9.85737 15.6297 9.14411 15.6297H3.07008C2.35681 15.6297 1.75836 15.0724 1.70771 14.3608L1.06962 5.40112H11.1445L10.5065 14.3608ZM4.86208 7.83688C4.84951 7.58575 4.63538 7.39208 4.38464 7.40492C4.13351 7.41748 3.94011 7.63125 3.95268 7.88235L4.19549 12.7386C4.20766 12.982 4.40883 13.1712 4.64983 13.1712C4.91197 13.1712 5.11785 12.9519 5.10492 12.6932L4.86208 7.83688ZM7.82951 7.40492C7.57871 7.39232 7.36461 7.58578 7.35208 7.83688L7.10926 12.6932C7.09633 12.9521 7.30236 13.1712 7.56436 13.1712C7.80535 13.1712 8.00652 12.982 8.01869 12.7386L8.26151 7.88235C8.27404 7.63125 8.08064 7.41748 7.82951 7.40492Z" fill="#308099"/>
</svg>
