<svg width="24" height="25" viewBox="0 0 24 25" fill="none" xmlns="http://www.w3.org/2000/svg">
<circle cx="12" cy="12.5" r="12" fill="#F8F8F8"/>
<path d="M24 12.573C24 5.90365 18.629 0.5 12 0.5C5.37097 0.5 0 5.90365 0 12.573C0 18.5988 4.38823 23.5935 10.125 24.5V16.063H7.07661V12.573H10.125V9.91306C10.125 6.88751 11.9153 5.21627 14.6574 5.21627C15.9706 5.21627 17.3439 5.45189 17.3439 5.45189V8.42146H15.8303C14.34 8.42146 13.875 9.35225 13.875 10.3069V12.573H17.2031L16.6708 16.063H13.875V24.5C19.6118 23.5935 24 18.5988 24 12.573Z" fill="#308099"/>
</svg>
