<svg width="24" height="25" viewBox="0 0 24 25" fill="none" xmlns="http://www.w3.org/2000/svg">
<g clip-path="url(#clip0_146_178)">
<mask id="mask0_146_178" style="mask-type:luminance" maskUnits="userSpaceOnUse" x="0" y="0" width="24" height="25">
<path d="M24 0H0V25H24V0Z" fill="white"/>
</mask>
<g mask="url(#mask0_146_178)">
<path d="M12 24.5C18.6274 24.5 24 19.1274 24 12.5C24 5.87258 18.6274 0.5 12 0.5C5.37258 0.5 0 5.87258 0 12.5C0 19.1274 5.37258 24.5 12 24.5Z" fill="#308099"/>
<path d="M18.3851 9.72517C19.377 9.72517 20.1809 8.92122 20.1809 7.92935C20.1809 6.93755 19.377 6.13353 18.3851 6.13353C17.3933 6.13353 16.5893 6.93755 16.5893 7.92935C16.5893 8.92122 17.3933 9.72517 18.3851 9.72517Z" fill="white"/>
<path d="M17.4276 18.0836C17.543 18.0982 17.6606 18.1056 17.7802 18.1056H17.7933C19.3323 18.1056 20.58 16.8579 20.58 15.3189V11.2814C20.58 10.8627 20.2405 10.5233 19.8218 10.5233H17.6612C17.7835 10.7546 17.8508 11.019 17.8463 11.2987V15.8861C17.863 16.6651 17.7124 17.409 17.4276 18.0836Z" fill="white"/>
<path d="M15.8729 17.3511C15.3315 16.8427 14.9932 16.1206 14.993 15.3194V11.3813H16.1303V15.9055L16.1306 15.9155C16.1425 16.4226 16.0501 16.908 15.8729 17.3511Z" fill="black"/>
<path d="M13.0573 9.70457C14.3682 9.57444 15.392 8.46851 15.392 7.12345C15.392 5.69083 14.2307 4.52948 12.7981 4.52948C11.3654 4.52948 10.204 5.69083 10.204 7.12345C10.204 7.17292 10.2055 7.22207 10.2082 7.27087H11.4679C12.3458 7.27087 13.0573 7.98252 13.0573 8.86036V9.70457Z" fill="white"/>
<path d="M11.3413 9.27013V8.98685H10.9934C11.1009 9.09095 11.2173 9.18576 11.3413 9.27013Z" fill="black"/>
<path d="M8.20783 16.0504C8.2073 15.999 8.20761 15.9474 8.20882 15.8955V14.9764H8.61459V11.1154H10.1161V10.5233H11.3414V16.0504H8.20783Z" fill="black"/>
<path d="M8.56741 17.7664H11.4679C12.3458 17.7664 13.0574 17.0548 13.0574 16.1769V10.5233H16.2569C16.6707 10.5336 16.998 10.8769 16.9883 11.2906V15.8955C17.0462 18.3787 15.0817 20.4392 12.5986 20.5C10.7794 20.4555 9.23853 19.3375 8.56741 17.7664Z" fill="white"/>
<path fill-rule="evenodd" clip-rule="evenodd" d="M11.468 8.12888H4.15144C3.74747 8.12888 3.41995 8.45638 3.41995 8.86037V16.1769C3.41995 16.5809 3.74745 16.9084 4.15144 16.9084H11.468C11.872 16.9084 12.1995 16.5809 12.1995 16.1769V8.86037C12.1995 8.45638 11.872 8.12888 11.468 8.12888ZM5.82607 11.1154H7.32758V14.9764H8.18559V11.1154H9.68711V10.2574H5.82607V11.1154Z" fill="white"/>
</g>
</g>
<defs>
<clipPath id="clip0_146_178">
<rect width="24" height="25" fill="white"/>
</clipPath>
</defs>
</svg>
