<svg width="24" height="25" viewBox="0 0 24 25" fill="none" xmlns="http://www.w3.org/2000/svg">
<circle cx="12" cy="12.5" r="12" fill="#F8F8F8"/>
<path fill-rule="evenodd" clip-rule="evenodd" d="M12 24.5C18.6168 24.5 24 19.1168 24 12.5C24 5.88317 18.6168 0.5 12 0.5C5.38317 0.5 0 5.88317 0 12.5C0 19.1168 5.38317 24.5 12 24.5ZM9.79392 18.8794C8.08838 18.2879 6.69108 17.031 5.91497 15.4203H8.66344C8.81756 16.3469 9.0457 17.2013 9.34045 17.9382C9.47939 18.2855 9.63117 18.5995 9.79392 18.8794ZM18.085 15.4204C17.3089 17.0309 15.9116 18.2879 14.2061 18.8795C14.3688 18.5995 14.5206 18.2855 14.6595 17.9383C14.9543 17.2014 15.1824 16.3469 15.3366 15.4204H18.085ZM14.2061 6.12059C15.9116 6.71206 17.3089 7.96906 18.085 9.57969H15.3366C15.1824 8.65311 14.9543 7.79867 14.6595 7.06175C14.5206 6.71445 14.3688 6.40048 14.2061 6.12059ZM12 5.75C12.4921 5.75 13.0695 6.42936 13.5069 7.52281C13.7483 8.12614 13.9395 8.82247 14.0769 9.57969H9.92302C10.0604 8.82252 10.2517 8.12614 10.493 7.52281C10.9305 6.42936 11.5079 5.75 12 5.75ZM18.75 12.5C18.75 13.0794 18.6765 13.642 18.5386 14.179H15.4937C15.543 13.6329 15.5692 13.071 15.5692 12.5C15.5692 11.929 15.543 11.3671 15.4937 10.821H18.5386C18.6793 11.3696 18.7503 11.9337 18.75 12.5ZM14.248 14.179H9.75192C9.69952 13.6363 9.67214 13.0738 9.67214 12.5C9.67214 11.9262 9.69947 11.3637 9.75192 10.821H14.248C14.3004 11.3637 14.3278 11.9262 14.3278 12.5C14.3278 13.0738 14.3005 13.6363 14.248 14.179ZM12 19.25C11.5079 19.25 10.9305 18.5706 10.4931 17.4772C10.2517 16.8739 10.0605 16.1775 9.92306 15.4203H14.077C13.9396 16.1775 13.7483 16.8739 13.507 17.4772C13.0695 18.5706 12.4921 19.25 12 19.25ZM5.25 12.5C5.25 11.9206 5.32345 11.358 5.46141 10.821H8.50631C8.457 11.3671 8.43084 11.929 8.43084 12.5C8.43084 13.071 8.457 13.6329 8.50631 14.179H5.46141C5.32068 13.6304 5.24965 13.0663 5.25 12.5ZM5.91502 9.57964C6.69108 7.96902 8.08837 6.71202 9.79397 6.12055C9.63126 6.40048 9.47944 6.71445 9.3405 7.06175C9.0457 7.79867 8.81761 8.65306 8.66348 9.57969L5.91502 9.57964ZM4.00861 12.5C4.00861 16.9064 7.59356 20.4914 12 20.4914C16.4065 20.4914 19.9914 16.9064 19.9914 12.5C19.9914 8.09356 16.4065 4.50861 12 4.50861C7.59352 4.50861 4.00861 8.09356 4.00861 12.5Z" fill="#308099"/>
</svg>
