<svg width="24" height="25" viewBox="0 0 24 25" fill="none" xmlns="http://www.w3.org/2000/svg">
<path d="M12 24.5C18.6274 24.5 24 19.1274 24 12.5C24 5.87258 18.6274 0.5 12 0.5C5.37258 0.5 0 5.87258 0 12.5C0 19.1274 5.37258 24.5 12 24.5Z" fill="#308099"/>
<path d="M19.7735 7.68C19.1888 7.93536 18.5703 8.105 17.9372 8.18368C18.6046 7.78789 19.1036 7.16087 19.3393 6.42158C18.7146 6.79237 18.0311 7.05351 17.3182 7.19368C16.8815 6.72655 16.3142 6.40167 15.6903 6.2613C15.0663 6.12092 14.4146 6.17155 13.8198 6.4066C13.225 6.64165 12.7148 7.05023 12.3553 7.57922C11.9959 8.1082 11.804 8.7331 11.8046 9.37263C11.8023 9.61674 11.8272 9.86034 11.8788 10.0989C10.6108 10.0367 9.3703 9.70761 8.23819 9.13326C7.10609 8.5589 6.10788 7.75218 5.30878 6.76579C4.89803 7.46749 4.77077 8.29956 4.95302 9.09195C5.13527 9.88434 5.61326 10.5772 6.2893 11.0289C5.78471 11.0153 5.2908 10.8805 4.8493 10.6358V10.6705C4.85072 11.406 5.10531 12.1186 5.57027 12.6886C6.03522 13.2585 6.68221 13.6509 7.40246 13.8C7.12989 13.8716 6.84901 13.9067 6.5672 13.9042C6.36428 13.908 6.16154 13.89 5.96246 13.8505C6.16881 14.4831 6.56608 15.0362 7.09962 15.4337C7.63317 15.8313 8.27678 16.0537 8.94193 16.0705C7.81476 16.9516 6.42521 17.4301 4.99457 17.43C4.73966 17.4322 4.48488 17.4174 4.23193 17.3858C5.69068 18.3263 7.39103 18.8232 9.12667 18.8163C14.9925 18.8163 18.1993 13.9579 18.1993 9.74684C18.1993 9.60632 18.1993 9.47053 18.1882 9.33474C18.8128 8.88401 19.35 8.32328 19.7735 7.68Z" fill="white"/>
</svg>
