<svg width="24" height="25" viewBox="0 0 24 25" fill="none" xmlns="http://www.w3.org/2000/svg">
<g clip-path="url(#clip0_146_205)">
<path fill-rule="evenodd" clip-rule="evenodd" d="M12 0.5C5.37225 0.5 0 5.87225 0 12.5C0 19.127 5.37225 24.5 12 24.5C18.627 24.5 24 19.127 24 12.5C24 5.87225 18.627 0.5 12 0.5Z" fill="#308099"/>
<path fill-rule="evenodd" clip-rule="evenodd" d="M6.10717 12.3067C6.10717 8.95352 8.82543 6.23525 12.1786 6.23525C15.5317 6.23525 18.25 8.95352 18.25 12.3067C18.25 15.6598 15.5317 18.3781 12.1786 18.3781C10.9841 18.3781 9.87234 18.0339 8.93427 17.4396C8.7597 17.329 8.54578 17.2994 8.34775 17.3585L6.29122 17.9723L7.06553 16.1604C7.15705 15.9463 7.13843 15.701 7.01563 15.5032C6.4398 14.5752 6.10717 13.4809 6.10717 12.3067ZM12.1786 4.80669C8.03646 4.80669 4.6786 8.16454 4.6786 12.3067C4.6786 13.6196 5.01656 14.8555 5.61048 15.93L4.37892 18.8117C4.27005 19.0664 4.31831 19.3612 4.50274 19.5679C4.68718 19.7747 4.97453 19.8561 5.24 19.7768L8.45387 18.8177C9.55175 19.447 10.8241 19.8067 12.1786 19.8067C16.3207 19.8067 19.6786 16.4488 19.6786 12.3067C19.6786 8.16454 16.3207 4.80669 12.1786 4.80669ZM13.8161 13.8655L12.8774 14.5267C12.4377 14.2763 11.9516 13.9267 11.4641 13.4392C10.9572 12.9323 10.5814 12.409 10.3044 11.929L10.9009 11.4227C11.1569 11.2054 11.227 10.8391 11.0693 10.5426L10.3092 9.11402C10.2068 8.92166 10.0223 8.78654 9.80797 8.74706C9.59367 8.7076 9.37308 8.76811 9.20891 8.91138L8.98355 9.10807C8.4416 9.58106 8.12108 10.3583 8.38673 11.1453C8.66213 11.9612 9.24988 13.2452 10.4539 14.4493C11.7494 15.7447 13.0652 16.2549 13.8347 16.453C14.4547 16.6126 15.0414 16.3987 15.4548 16.0618L15.8773 15.7175C16.0581 15.5703 16.1556 15.3441 16.1386 15.1116C16.1215 14.8791 15.9921 14.6695 15.7918 14.5502L14.593 13.8359C14.3508 13.6917 14.0466 13.7032 13.8161 13.8655Z" fill="white"/>
</g>
<defs>
<clipPath id="clip0_146_205">
<rect width="24" height="25" fill="white"/>
</clipPath>
</defs>
</svg>
