<svg width="24" height="25" viewBox="0 0 24 25" fill="none" xmlns="http://www.w3.org/2000/svg">
<g clip-path="url(#clip0_146_208)">
<mask id="mask0_146_208" style="mask-type:luminance" maskUnits="userSpaceOnUse" x="0" y="0" width="24" height="25">
<path d="M24 0H0V25H24V0Z" fill="white"/>
</mask>
<g mask="url(#mask0_146_208)">
<path d="M12 24.5C18.6274 24.5 24 19.1274 24 12.5C24 5.87258 18.6274 0.5 12 0.5C5.37258 0.5 0 5.87258 0 12.5C0 19.1274 5.37258 24.5 12 24.5Z" fill="#308099"/>
<path d="M20 11.6945C20 7.29815 16.435 3.73981 12.0451 3.73981C10.8356 3.7365 9.63821 3.98101 8.52688 4.45828C6.88814 5.15182 5.49004 6.31275 4.50711 7.79608C3.52418 9.27943 3 11.0193 3 12.7989C3 14.5782 3.52418 16.3183 4.50711 17.8017C5.49004 19.285 6.88814 20.4459 8.52688 21.1394C9.64178 21.612 10.841 21.854 12.0519 21.8511C13.1925 21.8513 14.323 21.6368 15.3842 21.2187L14.699 19.4893C13.1602 20.0983 11.4585 20.1581 9.88077 19.6589C8.30302 19.1597 6.94554 18.1318 6.03712 16.7485C5.12869 15.3652 4.72484 13.7111 4.89361 12.0649C5.06239 10.4186 5.79345 8.88082 6.96366 7.7107C8.32733 6.35388 10.1296 5.60238 12.0519 5.60238C15.4175 5.60238 18.1442 8.32936 18.1442 11.6948C18.1452 12.8896 17.7935 14.0579 17.1335 15.0536L15.5503 11.1557C15.3178 10.5837 15.0383 9.72664 13.9873 9.72664C12.9365 9.72664 12.6572 10.5913 12.431 11.1557L10.9744 14.7543L9.01898 9.81894H6.96366L9.39803 15.8174C9.64433 16.4227 9.91698 17.2476 10.9744 17.2476C12.0319 17.2476 12.2979 16.4227 12.5439 15.8174L13.9872 12.2524L15.4374 15.8174C15.73 16.5558 16.0426 17.2476 17.0068 17.2476C17.6922 17.2476 18.1243 16.8085 18.3638 16.5213C19.4262 15.1366 20.0016 13.4397 20 11.6945Z" fill="white"/>
</g>
</g>
<defs>
<clipPath id="clip0_146_208">
<rect width="24" height="25" fill="white"/>
</clipPath>
</defs>
</svg>
