<svg width="24" height="25" viewBox="0 0 24 25" fill="none" xmlns="http://www.w3.org/2000/svg">
<g clip-path="url(#clip0_146_192)">
<mask id="mask0_146_192" style="mask-type:luminance" maskUnits="userSpaceOnUse" x="0" y="0" width="24" height="25">
<path d="M24 0H0V25H24V0Z" fill="white"/>
</mask>
<g mask="url(#mask0_146_192)">
<path d="M12 24.5C18.6274 24.5 24 19.1274 24 12.5C24 5.87258 18.6274 0.5 12 0.5C5.37258 0.5 0 5.87258 0 12.5C0 19.1274 5.37258 24.5 12 24.5Z" fill="#308099"/>
<path fill-rule="evenodd" clip-rule="evenodd" d="M9.88928 8.36144C9.55696 8.36112 9.23216 8.2624 8.956 8.07749C8.67971 7.89264 8.46451 7.63005 8.33752 7.32291C8.21054 7.01578 8.17746 6.67789 8.24246 6.35195C8.30749 6.02602 8.46766 5.72667 8.70277 5.49176C8.93792 5.25687 9.23744 5.09693 9.56336 5.03219C9.88928 4.96746 10.2272 5.00082 10.5342 5.12808C10.8413 5.25533 11.1037 5.47075 11.2883 5.7471C11.473 6.02347 11.5714 6.34837 11.5714 6.68072V8.36144H9.88928ZM7.07749 16.0442C7.26234 15.7678 7.36115 15.443 7.36143 15.1107V13.4286H5.68072C5.34837 13.4286 5.02347 13.527 4.7471 13.7117C4.47075 13.8963 4.25533 14.1587 4.12808 14.4658C4.00082 14.7728 3.96746 15.1107 4.03219 15.4366C4.09693 15.7627 4.25686 16.0621 4.49176 16.2973C4.72667 16.5323 5.02602 16.6925 5.35195 16.7576C5.67789 16.8226 6.01578 16.7894 6.32291 16.6624C6.63005 16.5355 6.89264 16.3203 7.07749 16.0442ZM8.70085 13.9222C8.38565 14.2374 8.20858 14.665 8.20858 15.1107V19.3194C8.20858 19.765 8.38565 20.1925 8.70085 20.5077C9.016 20.8229 9.44352 21 9.88928 21C10.335 21 10.7626 20.8229 11.0778 20.5077C11.393 20.1925 11.5699 19.765 11.5699 19.3194V15.1107C11.5699 14.665 11.393 14.2374 11.0778 13.9222C10.7626 13.607 10.335 13.4299 9.88928 13.4299C9.44352 13.4299 9.016 13.607 8.70085 13.9222ZM11.0778 9.7008C10.7626 9.3856 10.335 9.20864 9.88928 9.20864H5.68072C5.23496 9.20864 4.80747 9.3856 4.49227 9.7008C4.17707 10.016 4 10.4435 4 10.8893C4 11.335 4.17707 11.7626 4.49227 12.0778C4.80747 12.393 5.23496 12.5699 5.68072 12.5699H9.88928C10.335 12.5699 10.7626 12.393 11.0778 12.0778C11.393 11.7626 11.5699 11.335 11.5699 10.8893C11.5699 10.4435 11.393 10.016 11.0778 9.7008ZM16.6386 10.8893C16.6389 10.557 16.7376 10.2322 16.9226 9.95584C17.1074 9.67968 17.3699 9.46448 17.6771 9.3376C17.9842 9.21056 18.3221 9.17744 18.648 9.2424C18.9739 9.30752 19.2733 9.46768 19.5082 9.70272C19.7432 9.93792 19.903 10.2374 19.9678 10.5634C20.0325 10.8893 19.9992 11.2272 19.872 11.5342C19.7446 11.8413 19.5293 12.1037 19.253 12.2883C18.9765 12.473 18.6517 12.5714 18.3194 12.5714H16.6386V10.8893ZM15.2992 12.0778C15.6144 11.7626 15.7914 11.335 15.7914 10.8893V6.68072C15.7914 6.23496 15.6144 5.80747 15.2992 5.49227C14.984 5.17707 14.5565 5 14.1107 5C13.665 5 13.2374 5.17707 12.9222 5.49227C12.607 5.80747 12.4301 6.23496 12.4301 6.68072V10.8893C12.4301 11.335 12.607 11.7626 12.9222 12.0778C13.2374 12.393 13.665 12.5699 14.1107 12.5699C14.5565 12.5699 14.984 12.393 15.2992 12.0778ZM14.1107 17.6386C14.443 17.6389 14.7678 17.7376 15.0442 17.9226C15.3203 18.1074 15.5355 18.3699 15.6624 18.6771C15.7894 18.9842 15.8226 19.3221 15.7576 19.648C15.6925 19.9739 15.5323 20.2733 15.2973 20.5082C15.0621 20.7432 14.7627 20.903 14.4366 20.9678C14.1107 21.0325 13.7728 20.9992 13.4658 20.872C13.1587 20.7446 12.8963 20.5293 12.7117 20.253C12.527 19.9765 12.4286 19.6517 12.4286 19.3194V17.6386H14.1107ZM12.9222 16.2992C13.2374 16.6144 13.665 16.7914 14.1107 16.7914H18.3194C18.7651 16.7914 19.1925 16.6144 19.5077 16.2992C19.8229 15.984 20 15.5565 20 15.1107C20 14.665 19.8229 14.2374 19.5077 13.9222C19.1925 13.607 18.7651 13.4299 18.3194 13.4299H14.1107C13.665 13.4299 13.2374 13.607 12.9222 13.9222C12.607 14.2374 12.4301 14.665 12.4301 15.1107C12.4301 15.5565 12.607 15.984 12.9222 16.2992Z" fill="white"/>
</g>
</g>
<defs>
<clipPath id="clip0_146_192">
<rect width="24" height="25" fill="white"/>
</clipPath>
</defs>
</svg>
