<svg width="24" height="25" viewBox="0 0 24 25" fill="none" xmlns="http://www.w3.org/2000/svg">
<g clip-path="url(#clip0_146_199)">
<path d="M12 24.5C18.6274 24.5 24 19.1274 24 12.5C24 5.87258 18.6274 0.5 12 0.5C5.37258 0.5 0 5.87258 0 12.5C0 19.1274 5.37258 24.5 12 24.5Z" fill="#308099"/>
<path d="M5.0334 6.5L10.3321 13.5848L5 19.345H6.20014L10.8685 14.3017L14.6403 19.345H18.7241L13.1272 11.8618L18.0903 6.5H16.8902L12.591 11.1447L9.11724 6.5H5.0334ZM6.79826 7.38393H8.67436L16.959 18.4611H15.0829L6.79826 7.38393Z" fill="white"/>
</g>
<defs>
<clipPath id="clip0_146_199">
<rect width="24" height="25" fill="white"/>
</clipPath>
</defs>
</svg>
