<svg width="26" height="25" viewBox="0 0 26 25" fill="none" xmlns="http://www.w3.org/2000/svg">
<path d="M25.0015 12.5713C25.0015 5.98218 19.66 0.640625 13.0708 0.640625C6.48169 0.640625 1.14014 5.98218 1.14014 12.5713C1.14014 19.1605 6.48169 24.502 13.0708 24.502C19.66 24.502 25.0015 19.1605 25.0015 12.5713Z" fill="#308099"/>
<path opacity="0.1" d="M22.0479 4.72355C20.3085 7.91658 17.8486 11.2101 14.7748 14.2838C11.7011 17.3575 8.40761 19.8127 5.21928 21.5521C5.01939 21.3784 4.82526 21.1973 4.63688 21.009C3.49821 19.9083 2.59007 18.592 1.9654 17.1367C1.34073 15.6815 1.01203 14.1164 0.998484 12.5328C0.984933 10.9492 1.2868 9.37873 1.88647 7.91299C2.48614 6.44726 3.37163 5.11558 4.49129 3.9956C5.61095 2.87562 6.94239 1.98977 8.40796 1.38968C9.87353 0.789601 11.4439 0.4873 13.0275 0.500409C14.6111 0.513518 16.1763 0.841774 17.6317 1.46604C19.0871 2.0903 20.4037 2.99808 21.5047 4.13643C21.6931 4.32481 21.8741 4.52052 22.0479 4.72355Z" fill="white"/>
<path d="M15.8941 6.29297H10.2427C9.32673 6.29297 8.44829 6.65683 7.80061 7.30451C7.15293 7.95219 6.78906 8.83064 6.78906 9.74659V15.398C6.78906 16.3139 7.15293 17.1924 7.80061 17.8401C8.44829 18.4877 9.32673 18.8516 10.2427 18.8516H15.8941C16.81 18.8516 17.6885 18.4877 18.3362 17.8401C18.9838 17.1924 19.3477 16.3139 19.3477 15.398V9.74659C19.3477 8.83064 18.9838 7.95219 18.3362 7.30451C17.6885 6.65683 16.81 6.29297 15.8941 6.29297ZM18.2488 14.9019C18.2488 15.658 17.9485 16.3831 17.4138 16.9177C16.8792 17.4524 16.1541 17.7527 15.398 17.7527H10.7388C9.98267 17.7527 9.25756 17.4524 8.72293 16.9177C8.1883 16.3831 7.88794 15.658 7.88794 14.9019V10.2427C7.88794 9.48658 8.1883 8.76146 8.72293 8.22683C9.25756 7.6922 9.98267 7.39185 10.7388 7.39185H15.398C16.1541 7.39185 16.8792 7.6922 17.4138 8.22683C17.9485 8.76146 18.2488 9.48658 18.2488 10.2427V14.9019Z" fill="white"/>
<path d="M15.3589 10.3065L15.3291 10.2767L15.304 10.2516C14.7104 9.66007 13.9065 9.32811 13.0685 9.32851C12.6454 9.33138 12.2269 9.41761 11.8371 9.58225C11.4473 9.7469 11.0937 9.98674 10.7966 10.2881C10.4995 10.5894 10.2647 10.9463 10.1056 11.3384C9.94643 11.7306 9.86612 12.1502 9.86923 12.5733C9.86859 13.4321 10.2071 14.2564 10.8111 14.8669C11.107 15.1663 11.4595 15.4038 11.8482 15.5656C12.2369 15.7273 12.6539 15.81 13.0748 15.8088C13.7063 15.7955 14.3202 15.5988 14.8418 15.2426C15.3634 14.8865 15.77 14.3862 16.0122 13.8029C16.2543 13.2196 16.3215 12.5784 16.2055 11.9576C16.0895 11.3367 15.7953 10.763 15.3589 10.3065ZM13.0685 14.702C12.6463 14.7079 12.2319 14.5882 11.8779 14.3579C11.5239 14.1276 11.2464 13.7972 11.0808 13.4088C10.9151 13.0204 10.8686 12.5915 10.9474 12.1766C11.0261 11.7618 11.2264 11.3797 11.5229 11.079C11.8194 10.7783 12.1986 10.5726 12.6123 10.488C13.0261 10.4034 13.4556 10.4438 13.8463 10.604C14.237 10.7642 14.5712 11.037 14.8065 11.3877C15.0417 11.7383 15.1674 12.1511 15.1674 12.5733C15.1695 12.851 15.1168 13.1263 15.0124 13.3835C14.9081 13.6408 14.754 13.8749 14.5591 14.0726C14.3642 14.2703 14.1322 14.4276 13.8764 14.5356C13.6207 14.6436 13.3462 14.7002 13.0685 14.702ZM17.2176 9.17937C17.2184 9.28011 17.1994 9.38002 17.1615 9.47338C17.1237 9.56674 17.0678 9.65173 16.9971 9.72347C16.9264 9.79521 16.8422 9.8523 16.7494 9.89147C16.6566 9.93063 16.557 9.95111 16.4562 9.95173C16.3563 9.95168 16.2575 9.93182 16.1653 9.89328C16.0731 9.85475 15.9895 9.79831 15.9194 9.72724C15.813 9.61934 15.7407 9.48259 15.7113 9.33396C15.6819 9.18533 15.6968 9.03135 15.7542 8.89111C15.8115 8.75087 15.9087 8.63055 16.0338 8.54505C16.1589 8.45956 16.3063 8.41265 16.4578 8.41016C16.6351 8.41012 16.8068 8.47235 16.9429 8.58598L16.9586 8.60168C16.9839 8.62228 17.007 8.64543 17.0276 8.67075L17.0449 8.68959C17.1573 8.82802 17.2183 9.00107 17.2176 9.17937Z" fill="white"/>
</svg>
