<svg width="40" height="40" viewBox="0 0 40 40" fill="none" xmlns="http://www.w3.org/2000/svg">
<g clip-path="url(#clip0_149_232)">
<rect width="40" height="40" rx="6" fill="#308099"/>
<path d="M31.6841 12.9269C30.7877 13.3184 29.8395 13.5785 28.8689 13.6991C29.8921 13.0923 30.6571 12.131 31.0184 10.9976C30.0607 11.5661 29.0129 11.9664 27.9199 12.1813C27.2504 11.4652 26.3807 10.9671 25.4242 10.7519C24.4675 10.5367 23.4684 10.6143 22.5565 10.9747C21.6447 11.335 20.8625 11.9614 20.3113 12.7724C19.7603 13.5834 19.4661 14.5414 19.4671 15.5219C19.4635 15.8961 19.5017 16.2696 19.5808 16.6353C17.6369 16.54 15.7351 16.0354 13.9994 15.1549C12.2638 14.2743 10.7335 13.0376 9.50837 11.5253C8.87865 12.6011 8.68355 13.8768 8.96295 15.0916C9.24236 16.3064 9.97516 17.3686 11.0116 18.0611C10.238 18.0402 9.4808 17.8336 8.80394 17.4584V17.5116C8.80612 18.6392 9.19643 19.7317 9.90926 20.6056C10.6221 21.4793 11.614 22.0809 12.7182 22.3094C12.3003 22.4192 11.8697 22.473 11.4376 22.4692C11.1265 22.475 10.8157 22.4474 10.5105 22.3869C10.8269 23.3567 11.4359 24.2046 12.2539 24.8141C13.0719 25.4236 14.0586 25.7646 15.0783 25.7903C13.3503 27.1411 11.22 27.8747 9.02665 27.8746C8.63585 27.8779 8.24525 27.8552 7.85746 27.8068C10.0939 29.2487 12.7006 30.0105 15.3615 29.9999C24.3544 29.9999 29.2707 22.5515 29.2707 16.0956C29.2707 15.8801 29.2707 15.672 29.2537 15.4638C30.2113 14.7728 31.0349 13.9131 31.6841 12.9269Z" fill="white"/>
</g>
<defs>
<clipPath id="clip0_149_232">
<rect width="40" height="40" fill="white"/>
</clipPath>
</defs>
</svg>
