<svg width="40" height="40" viewBox="0 0 40 40" fill="none" xmlns="http://www.w3.org/2000/svg">
<g clip-path="url(#clip0_150_240)">
<rect width="40" height="40" rx="6" fill="#308099"/>
<path d="M19.5 40C30.2696 40 39 31.2696 39 20.5C39 9.73045 30.2696 1 19.5 1C8.73045 1 0 9.73045 0 20.5C0 31.2696 8.73045 40 19.5 40Z" fill="#F8F8F8"/>
<path d="M40 19.6247C40 8.23124 30.8245 -1 19.5 -1C8.17541 -1 -1 8.23124 -1 19.6247C-1 29.9188 6.49656 38.4514 16.2969 40V25.5868H11.0892V19.6247H16.2969V15.0806C16.2969 9.912 19.3553 7.05696 24.0397 7.05696C26.2831 7.05696 28.6292 7.45948 28.6292 7.45948V12.5325H26.0434C23.4975 12.5325 22.7031 14.1226 22.7031 15.7535V19.6247H28.3886L27.4793 25.5868H22.7031V40C32.5035 38.4514 40 29.9188 40 19.6247Z" fill="#308099"/>
</g>
<defs>
<clipPath id="clip0_150_240">
<rect width="40" height="40" fill="white"/>
</clipPath>
</defs>
</svg>
