<svg width="40" height="40" viewBox="0 0 40 40" fill="none" xmlns="http://www.w3.org/2000/svg">
<g clip-path="url(#clip0_125_103)">
<rect width="40" height="40" rx="6" fill="#308099"/>
<path fill-rule="evenodd" clip-rule="evenodd" d="M17.0978 13.622C16.6408 13.6216 16.1942 13.4857 15.8144 13.2315C15.4346 12.9774 15.1387 12.6163 14.9641 12.194C14.7895 11.7717 14.744 11.3071 14.8334 10.8589C14.9228 10.4108 15.143 9.99918 15.4663 9.67618C15.7896 9.35318 16.2014 9.13327 16.6496 9.04426C17.0978 8.95525 17.5624 9.00113 17.9846 9.1761C18.4067 9.35107 18.7675 9.64728 19.0214 10.0273C19.2752 10.4073 19.4107 10.854 19.4107 11.311V13.622H17.0978ZM13.2315 24.1856C13.4857 23.8058 13.6216 23.3592 13.622 22.9022V20.5893H11.311C10.854 20.5893 10.4073 20.7248 10.0273 20.9786C9.64728 21.2325 9.35107 21.5933 9.1761 22.0154C9.00113 22.4376 8.95525 22.9022 9.04426 23.3504C9.13327 23.7986 9.35318 24.2104 9.67618 24.5337C9.99918 24.857 10.4108 25.0772 10.8589 25.1666C11.3071 25.256 11.7717 25.2105 12.194 25.0359C12.6163 24.8613 12.9774 24.5654 13.2315 24.1856ZM15.4637 21.2681C15.0303 21.7015 14.7868 22.2893 14.7868 22.9022V28.689C14.7868 29.3019 15.0303 29.8897 15.4637 30.3231C15.897 30.7565 16.4849 31 17.0978 31C17.7107 31 18.2985 30.7565 18.7319 30.3231C19.1653 29.8897 19.4088 29.3019 19.4088 28.689V22.9022C19.4088 22.2893 19.1653 21.7015 18.7319 21.2681C18.2985 20.8347 17.7107 20.5913 17.0978 20.5913C16.4849 20.5913 15.897 20.8347 15.4637 21.2681ZM18.7319 15.4637C18.2985 15.0303 17.7107 14.7868 17.0978 14.7868H11.311C10.6981 14.7868 10.1103 15.0303 9.67687 15.4637C9.24348 15.897 9 16.4849 9 17.0978C9 17.7107 9.24348 18.2985 9.67687 18.7319C10.1103 19.1653 10.6981 19.4088 11.311 19.4088H17.0978C17.7107 19.4088 18.2985 19.1653 18.7319 18.7319C19.1653 18.2985 19.4087 17.7107 19.4087 17.0978C19.4087 16.4849 19.1653 15.897 18.7319 15.4637ZM26.378 17.0978C26.3784 16.6408 26.5143 16.1942 26.7685 15.8144C27.0226 15.4346 27.3837 15.1387 27.806 14.9641C28.2283 14.7895 28.6929 14.744 29.1411 14.8334C29.5892 14.9228 30.0008 15.143 30.3238 15.4663C30.6468 15.7896 30.8667 16.2014 30.9557 16.6496C31.0447 17.0978 30.9989 17.5624 30.8239 17.9846C30.6489 18.4067 30.3527 18.7675 29.9727 19.0214C29.5927 19.2752 29.146 19.4107 28.689 19.4107H26.378V17.0978ZM24.5363 18.7319C24.9697 18.2985 25.2132 17.7107 25.2132 17.0978V11.311C25.2132 10.6981 24.9697 10.1103 24.5363 9.67687C24.103 9.24348 23.5151 9 22.9022 9C22.2893 9 21.7015 9.24348 21.2681 9.67687C20.8347 10.1103 20.5913 10.6981 20.5913 11.311V17.0978C20.5913 17.7107 20.8347 18.2985 21.2681 18.7319C21.7015 19.1653 22.2893 19.4087 22.9022 19.4087C23.5151 19.4087 24.103 19.1653 24.5363 18.7319ZM22.9022 26.378C23.3592 26.3784 23.8058 26.5143 24.1856 26.7685C24.5654 27.0226 24.8613 27.3837 25.0359 27.806C25.2105 28.2283 25.256 28.6929 25.1666 29.1411C25.0772 29.5892 24.857 30.0008 24.5337 30.3238C24.2104 30.6468 23.7986 30.8667 23.3504 30.9557C22.9022 31.0447 22.4376 30.9989 22.0154 30.8239C21.5933 30.6489 21.2325 30.3527 20.9786 29.9727C20.7248 29.5927 20.5893 29.146 20.5893 28.689V26.378H22.9022ZM21.2681 24.5363C21.7015 24.9697 22.2893 25.2132 22.9022 25.2132H28.689C29.3019 25.2132 29.8897 24.9697 30.3231 24.5363C30.7565 24.103 31 23.5151 31 22.9022C31 22.2893 30.7565 21.7015 30.3231 21.2681C29.8897 20.8347 29.3019 20.5913 28.689 20.5913H22.9022C22.2893 20.5913 21.7015 20.8347 21.2681 21.2681C20.8347 21.7015 20.5913 22.2893 20.5913 22.9022C20.5913 23.5151 20.8347 24.103 21.2681 24.5363Z" fill="white"/>
</g>
<defs>
<clipPath id="clip0_125_103">
<rect width="40" height="40" fill="white"/>
</clipPath>
</defs>
</svg>
