<svg width="40" height="40" viewBox="0 0 40 40" fill="none" xmlns="http://www.w3.org/2000/svg">
<g clip-path="url(#clip0_125_102)">
<rect width="40" height="40" rx="6" fill="#308099"/>
<path d="M29.7461 15.5499C31.1873 15.5499 32.3556 14.3816 32.3556 12.9404C32.3556 11.4992 31.1873 10.3309 29.7461 10.3309C28.3049 10.3309 27.1366 11.4992 27.1366 12.9404C27.1366 14.3816 28.3049 15.5499 29.7461 15.5499Z" fill="white"/>
<path d="M28.3546 27.6955C28.5224 27.7167 28.6934 27.7276 28.867 27.7276H28.8861C31.1226 27.7276 32.9355 25.9146 32.9355 23.6782V17.8114C32.9355 17.2029 32.4423 16.7096 31.8337 16.7096H28.6942C28.8719 17.0458 28.9698 17.4301 28.9632 17.8365V24.5023C28.9875 25.6344 28.7687 26.7154 28.3546 27.6955Z" fill="white"/>
<path d="M26.0956 26.6312C25.3087 25.8926 24.8171 24.8432 24.817 23.6788V17.9564H26.4696V24.5307L26.47 24.5452C26.4872 25.282 26.3529 25.9873 26.0956 26.6312Z" fill="black"/>
<path d="M22.0043 15.52C23.9091 15.3309 25.3968 13.7239 25.3968 11.7693C25.3968 9.68758 23.7091 8 21.6274 8C19.5457 8 17.858 9.68758 17.858 11.7693C17.858 11.8412 17.8601 11.9126 17.864 11.9835H19.6945C20.9702 11.9835 22.0043 13.0176 22.0043 14.2932V15.52Z" fill="white"/>
<path d="M19.5107 14.8887V14.4771H19.0052C19.1613 14.6283 19.3305 14.7661 19.5107 14.8887Z" fill="black"/>
<path d="M14.9573 24.7412C14.9565 24.6665 14.957 24.5914 14.9587 24.5161V23.1806H15.5484V17.5701H17.7302V16.7096H19.5107V24.7412H14.9573Z" fill="black"/>
<path d="M15.4798 27.2347H19.6945C20.9702 27.2347 22.0043 26.2007 22.0043 24.9251V16.7096H26.6535C27.2547 16.7245 27.7304 17.2235 27.7164 17.8247V24.5161C27.8004 28.1244 24.9457 31.1187 21.3376 31.207C18.6941 31.1422 16.4551 29.5178 15.4798 27.2347Z" fill="white"/>
<path fill-rule="evenodd" clip-rule="evenodd" d="M19.6948 13.2303H9.06294C8.47591 13.2303 8 13.7062 8 14.2932V24.9251C8 25.5121 8.47589 25.988 9.06294 25.988H19.6948C20.2817 25.988 20.7576 25.5121 20.7576 24.9251V14.2932C20.7576 13.7062 20.2817 13.2303 19.6948 13.2303ZM11.4964 17.5701H13.6782V23.1806H14.925V17.5701H17.1068V16.3233H11.4964V17.5701Z" fill="white"/>
</g>
<defs>
<clipPath id="clip0_125_102">
<rect width="40" height="40" fill="white"/>
</clipPath>
</defs>
</svg>
