<svg width="40" height="40" viewBox="0 0 40 40" fill="none" xmlns="http://www.w3.org/2000/svg">
    <g clip-path="url(#clip0_216_8)">
        <path d="M34 0H6C2.68629 0 0 2.68629 0 6V34C0 37.3137 2.68629 40 6 40H34C37.3137 40 40 37.3137 40 34V6C40 2.68629 37.3137 0 34 0Z" fill="#308099"/>
        <g clip-path="url(#clip1_216_8)">
            <path d="M20 7.10001C12.9 7.10001 7.10004 12.9 7.10004 20C7.10004 27.1 12.9 32.9 20 32.9C27.1 32.9 32.9 27.1 32.9 20C32.9 12.9 27.1 7.10001 20 7.10001ZM29.7 15.3H25.3C25.1 13.8 24.7 12.4 24.2 11.2C24 10.6 23.7 10.1 23.5 9.70001C26.2 10.7 28.5 12.7 29.7 15.3ZM23.7 20C23.7 20.9 23.7 21.8 23.6 22.7H16.4C16.4 21.8 16.3 20.9 16.3 20C16.3 19.1 16.3 18.2 16.4 17.3H23.6C23.6 18.2 23.7 19.1 23.7 20ZM17.5 12C18.2 10.2 19.1 9.10001 19.9 9.10001H20C20.8 9.10001 21.7 10.2 22.4 12C22.8 13 23.1 14.1 23.3 15.3H16.6C16.8 14.1 17.1 13 17.5 12ZM16.4 9.70001C16.1 10.2 15.9 10.7 15.7 11.2C15.2 12.4 14.9 13.8 14.6 15.3H10.2C11.4 12.7 13.7 10.7 16.4 9.70001ZM9.10004 20C9.10004 19.1 9.20004 18.2 9.40004 17.3H14.3C14.3 18.2 14.2 19.1 14.2 20C14.2 20.9 14.2 21.8 14.3 22.7H9.40004C9.20004 21.8 9.10004 20.9 9.10004 20ZM10.3 24.7H14.7C14.9 26.2 15.3 27.6 15.8 28.8C16 29.4 16.3 29.9 16.5 30.3C13.8 29.3 11.5 27.3 10.3 24.7ZM22.5 28C21.8 29.8 20.9 30.9 20.1 30.9H20C19.2 30.9 18.3 29.8 17.6 28C17.2 27 16.9 25.9 16.7 24.7H23.4C23.2 25.9 22.9 27 22.5 28ZM23.6 30.3C23.9 29.8 24.1 29.3 24.3 28.8C24.8 27.6 25.1 26.2 25.4 24.7H29.8C28.6 27.3 26.3 29.3 23.6 30.3ZM25.7 22.7C25.7 21.8 25.8 20.9 25.8 20C25.8 19.1 25.8 18.2 25.7 17.3H30.6C30.8 18.2 30.9 19.1 30.9 20C30.9 20.9 30.8 21.8 30.6 22.7H25.7Z" fill="#F8F8F8"/>
        </g>
    </g>
    <defs>
        <clipPath id="clip0_216_8">
            <rect width="40" height="40" fill="white"/>
        </clipPath>
        <clipPath id="clip1_216_8">
            <rect width="25.8" height="25.8" fill="white" transform="translate(7.10004 7.10001)"/>
        </clipPath>
    </defs>
</svg>
