<svg width="40" height="40" viewBox="0 0 40 40" fill="none" xmlns="http://www.w3.org/2000/svg">
<g clip-path="url(#clip0_150_251)">
<rect width="40" height="40" rx="6" fill="#308099"/>
<path fill-rule="evenodd" clip-rule="evenodd" d="M10.4551 19.5C10.4551 13.6826 15.171 8.96672 20.9884 8.96672C26.8057 8.96672 31.5216 13.6826 31.5216 19.5C31.5216 25.3173 26.8057 30.0332 20.9884 30.0332C18.9162 30.0332 16.9873 29.4361 15.3599 28.405C15.057 28.2132 14.6859 28.1619 14.3423 28.2644L10.7745 29.3292L12.1178 26.1858C12.2766 25.8143 12.2443 25.3888 12.0312 25.0455C11.0322 23.4357 10.4551 21.5371 10.4551 19.5ZM20.9884 6.48831C13.8022 6.48831 7.97674 12.3138 7.97674 19.5C7.97674 21.7777 8.56306 23.9218 9.59344 25.7861L7.45683 30.7854C7.26795 31.2274 7.35167 31.7387 7.67165 32.0973C7.99162 32.4561 8.49014 32.5974 8.95072 32.4598L14.5264 30.7959C16.4311 31.8877 18.6385 32.5116 20.9884 32.5116C28.1745 32.5116 34 26.6861 34 19.5C34 12.3138 28.1745 6.48831 20.9884 6.48831ZM23.8292 22.2044L22.2007 23.3515C21.4379 22.9171 20.5947 22.3106 19.7488 21.4647C18.8694 20.5854 18.2175 19.6775 17.7368 18.8448L18.7718 17.9663C19.2159 17.5894 19.3375 16.9538 19.0639 16.4395L17.7452 13.9611C17.5676 13.6273 17.2474 13.3929 16.8756 13.3244C16.5038 13.256 16.1211 13.3609 15.8363 13.6095L15.4453 13.9507C14.5051 14.7713 13.9491 16.1198 14.4099 17.4851C14.8877 18.9006 15.9074 21.1283 17.9963 23.2172C20.2437 25.4646 22.5266 26.3497 23.8616 26.6934C24.9372 26.9703 25.9551 26.5991 26.6723 26.0147L27.4053 25.4174C27.7188 25.162 27.888 24.7695 27.8585 24.3662C27.8289 23.9628 27.6043 23.5992 27.2569 23.3922L25.1771 22.153C24.757 21.9028 24.2291 21.9228 23.8292 22.2044Z" fill="white"/>
</g>
<defs>
<clipPath id="clip0_150_251">
<rect width="40" height="40" fill="white"/>
</clipPath>
</defs>
</svg>
