<svg width="40" height="40" viewBox="0 0 40 40" fill="none" xmlns="http://www.w3.org/2000/svg">
<g clip-path="url(#clip0_150_246)">
<rect width="40" height="40" rx="6" fill="#308099"/>
<path d="M25.9127 8H14.7945C12.9924 8 11.2643 8.71583 9.99006 9.99004C8.71585 11.2642 8 12.9924 8 14.7944V25.9126C8 27.7145 8.71585 29.4428 9.99006 30.7171C11.2643 31.9911 12.9924 32.707 14.7945 32.707H25.9127C27.7145 32.707 29.4428 31.9911 30.7171 30.7171C31.9911 29.4428 32.7071 27.7145 32.7071 25.9126V14.7944C32.7071 12.9924 31.9911 11.2642 30.7171 9.99004C29.4428 8.71583 27.7145 8 25.9127 8ZM30.5451 24.9366C30.5451 26.4242 29.9544 27.8507 28.9024 28.9024C27.8507 29.9543 26.4242 30.5451 24.9367 30.5451H15.7705C14.2829 30.5451 12.8564 29.9543 11.8046 28.9024C10.7528 27.8507 10.1619 26.4242 10.1619 24.9366V15.7704C10.1619 14.2829 10.7528 12.8563 11.8046 11.8045C12.8564 10.7528 14.2829 10.1619 15.7705 10.1619H24.9367C26.4242 10.1619 27.8507 10.7528 28.9024 11.8045C29.9544 12.8563 30.5451 14.2829 30.5451 15.7704V24.9366Z" fill="white"/>
<path d="M24.8597 15.896L24.8011 15.8373L24.7517 15.788C23.5839 14.6242 22.0024 13.9711 20.3538 13.9719C19.5214 13.9776 18.698 14.1472 17.9312 14.4711C17.1643 14.795 16.4687 15.2669 15.8842 15.8598C15.2997 16.4525 14.8377 17.1547 14.5247 17.9261C14.2116 18.6976 14.0536 19.5231 14.0597 20.3555C14.0585 22.0451 14.7244 23.6667 15.9127 24.8678C16.4948 25.4568 17.1883 25.9241 17.953 26.2424C18.7177 26.5605 19.5381 26.7232 20.3661 26.7208C21.6085 26.6947 22.8163 26.3077 23.8424 25.6069C24.8686 24.9064 25.6685 23.9221 26.145 22.7745C26.6213 21.627 26.7535 20.3655 26.5253 19.1442C26.2971 17.9227 25.7183 16.794 24.8597 15.896ZM20.3538 24.5434C19.5231 24.555 18.7079 24.3195 18.0114 23.8664C17.315 23.4133 16.7691 22.7633 16.4433 21.9992C16.1173 21.2351 16.0258 20.3913 16.1808 19.5751C16.3357 18.759 16.7297 18.0073 17.313 17.4157C17.8964 16.8241 18.6424 16.4195 19.4563 16.253C20.2703 16.0866 21.1153 16.1661 21.8839 16.4812C22.6526 16.7964 23.3101 17.3331 23.773 18.023C24.2357 18.7128 24.483 19.5249 24.483 20.3555C24.4871 20.9018 24.3834 21.4434 24.1781 21.9494C23.9729 22.4556 23.6697 22.9162 23.2863 23.3051C22.9028 23.6941 22.4464 24.0035 21.9432 24.216C21.4401 24.4285 20.9001 24.5398 20.3538 24.5434ZM28.5164 13.6785C28.518 13.8767 28.4806 14.0733 28.4061 14.2569C28.3317 14.4406 28.2217 14.6078 28.0826 14.7489C27.9435 14.8901 27.7779 15.0024 27.5953 15.0795C27.4127 15.1565 27.2168 15.1968 27.0185 15.198C26.822 15.1979 26.6276 15.1588 26.4462 15.083C26.2648 15.0072 26.1003 14.8962 25.9624 14.7564C25.7531 14.5441 25.6109 14.2751 25.553 13.9826C25.4952 13.6902 25.5245 13.3873 25.6374 13.1114C25.7502 12.8355 25.9414 12.5988 26.1875 12.4306C26.4336 12.2624 26.7236 12.1701 27.0216 12.1652C27.3704 12.1651 27.7082 12.2876 27.976 12.5111L28.0069 12.542C28.0567 12.5825 28.1021 12.6281 28.1426 12.6779L28.1767 12.715C28.3978 12.9873 28.5178 13.3277 28.5164 13.6785Z" fill="white"/>
</g>
<defs>
<clipPath id="clip0_150_246">
<rect width="40" height="40" fill="white"/>
</clipPath>
</defs>
</svg>
