<svg width="40" height="40" viewBox="0 0 40 40" fill="none" xmlns="http://www.w3.org/2000/svg">
<g clip-path="url(#clip0_125_175)">
<rect width="40" height="40" rx="6" fill="#308099"/>
<path d="M31.1817 18.4654C31.1817 12.6815 26.4916 8.00004 20.716 8.00004C19.1247 7.99568 17.5494 8.31737 16.0872 8.94528C13.9313 9.85774 12.0919 11.3851 10.7987 13.3366C9.50555 15.2881 8.81592 17.5773 8.81592 19.9184C8.81592 22.2595 9.50555 24.5487 10.7987 26.5002C12.0919 28.4517 13.9313 29.9791 16.0872 30.8915C17.5542 31.5132 19.1317 31.8317 20.7249 31.8278C22.2256 31.8282 23.7129 31.5459 25.109 30.9957L24.2075 28.7206C22.1831 29.5217 19.9443 29.6005 17.8685 28.9437C15.7927 28.2868 14.0068 26.9346 12.8116 25.1147C11.6165 23.2948 11.0852 21.1186 11.3072 18.9528C11.5292 16.7869 12.4911 14.7638 14.0306 13.2243C15.8246 11.4392 18.1959 10.4505 20.7249 10.4505C25.1528 10.4505 28.7402 14.0382 28.7402 18.466C28.7413 20.0378 28.2787 21.5749 27.4103 22.8849L25.3275 17.7566C25.0215 17.004 24.6538 15.8766 23.2712 15.8766C21.8887 15.8766 21.5213 17.0141 21.2236 17.7566L19.3072 22.4911L16.7347 15.998H14.0306L17.2334 23.8897C17.5573 24.686 17.916 25.7712 19.3072 25.7712C20.6984 25.7712 21.0485 24.686 21.3721 23.8897L23.2709 19.1995L25.179 23.8897C25.5639 24.8611 25.975 25.7712 27.2439 25.7712C28.1453 25.7712 28.714 25.1936 29.0289 24.8158C30.4268 22.9941 31.1836 20.7616 31.1817 18.4654Z" fill="white"/>
</g>
<defs>
<clipPath id="clip0_125_175">
<rect width="40" height="40" fill="white"/>
</clipPath>
</defs>
</svg>
