<svg width="21" height="21" viewBox="0 0 21 21" fill="none" xmlns="http://www.w3.org/2000/svg">
<g clip-path="url(#clip0_180_178)">
<path d="M20.7687 3.30999C20.4583 2.99872 19.9552 2.99791 19.6437 3.30786L13.6039 9.32332L11.8583 7.57782C11.5476 7.26734 11.0443 7.26706 10.7335 7.57782L3.65405 14.6574C3.34326 14.9678 3.34326 15.4716 3.65405 15.7821C3.80917 15.9375 4.0128 16.0152 4.21644 16.0152C4.41979 16.0152 4.62374 15.9375 4.77881 15.7821L11.296 9.26529L13.0404 11.0094C13.3508 11.3199 13.8529 11.3202 14.1641 11.0107L20.7663 4.43501C21.0776 4.12505 21.0787 3.62126 20.7687 3.30999Z" fill="#999999"/>
<path d="M20.1775 18.4545H1.59042V1.74992C1.59042 1.31057 1.23433 0.95446 0.794974 0.95446C0.355601 0.95446 -0.000488281 1.31057 -0.000488281 1.74992V19.2499C-0.000488281 19.6893 0.355601 20.0454 0.794974 20.0454H20.1775C20.617 20.0454 20.9729 19.6893 20.9729 19.2499C20.9729 18.8106 20.617 18.4545 20.1775 18.4545Z" fill="#999999"/>
<path d="M20.2037 3.04925H14.2378C13.7984 3.04925 13.4423 3.40535 13.4423 3.84471C13.4423 4.28406 13.7984 4.64017 14.2378 4.64017H19.4082V9.81088C19.4082 10.2499 19.7643 10.6063 20.2037 10.6063C20.643 10.6063 20.9991 10.2499 20.9991 9.81058V3.84471C20.9991 3.40535 20.643 3.04925 20.2037 3.04925Z" fill="#999999"/>
</g>
<defs>
<clipPath id="clip0_180_178">
<rect width="21" height="21" fill="white"/>
</clipPath>
</defs>
</svg>
