<svg width="16" height="17" viewBox="0 0 16 17" fill="none" xmlns="http://www.w3.org/2000/svg">
<path d="M13.4018 9.6152C12.8881 9.6152 12.4257 9.8173 12.1003 10.1541L10.5761 9.27835C10.696 8.97519 10.7645 8.63835 10.7645 8.28467C10.7645 7.93098 10.696 7.59414 10.5761 7.29098L12.1003 6.41519C12.4257 6.75204 12.8881 6.95414 13.4018 6.95414C14.3951 6.95414 15.2172 6.14572 15.2172 5.16888C15.2172 4.19204 14.3951 3.40046 13.4018 3.40046C12.4085 3.40046 11.5865 4.20888 11.5865 5.18572C11.5865 5.35414 11.6208 5.50572 11.655 5.6573L10.1137 6.53309C9.68553 6.01098 9.069 5.64046 8.36684 5.53941V3.78783C9.15463 3.58572 9.73691 2.89519 9.73691 2.06993C9.73691 1.09309 8.932 0.284668 7.92157 0.284668C6.91115 0.284668 6.10624 1.09309 6.10624 2.06993C6.10624 2.89519 6.68852 3.60256 7.4763 3.78783V5.53941C6.77414 5.6573 6.15762 6.01098 5.72947 6.53309L4.18815 5.6573C4.23952 5.50572 4.25665 5.3373 4.25665 5.18572C4.25665 4.19204 3.45174 3.40046 2.44131 3.40046C1.43089 3.40046 0.625977 4.19204 0.625977 5.16888C0.625977 6.14572 1.44802 6.95414 2.44131 6.95414C2.95509 6.95414 3.41748 6.75204 3.74288 6.41519L5.26707 7.29098C5.14719 7.59414 5.07869 7.93098 5.07869 8.28467C5.07869 8.63835 5.14719 8.97519 5.26707 9.27835L3.74288 10.1541C3.41748 9.8173 2.95509 9.6152 2.44131 9.6152C1.44802 9.6152 0.625977 10.4236 0.625977 11.4005C0.625977 12.3773 1.44802 13.1689 2.44131 13.1689C3.43461 13.1689 4.25665 12.3605 4.25665 11.3836C4.25665 11.2152 4.2224 11.0636 4.18815 10.912L5.72947 10.0362C6.15762 10.5584 6.77414 10.9289 7.4763 11.0299V12.7815C6.68852 12.9836 6.10624 13.6741 6.10624 14.4994C6.10624 15.4762 6.91115 16.2847 7.92157 16.2847C8.932 16.2847 9.73691 15.4762 9.73691 14.4994C9.73691 13.6741 9.15463 12.9668 8.36684 12.7815V11.0299C9.069 10.912 9.68553 10.5584 10.1137 10.0362L11.655 10.912C11.6036 11.0636 11.5865 11.2152 11.5865 11.3836C11.5865 12.3773 12.3914 13.1689 13.4018 13.1689C14.3951 13.1689 15.2172 12.3605 15.2172 11.3836C15.2172 10.4068 14.3951 9.6152 13.4018 9.6152ZM13.4018 4.25941C13.9156 4.25941 14.3266 4.66362 14.3266 5.16888C14.3266 5.67414 13.9156 6.07835 13.4018 6.07835C12.8881 6.07835 12.477 5.67414 12.477 5.16888C12.477 4.66362 12.8881 4.25941 13.4018 4.25941ZM2.44131 6.07835C1.92754 6.07835 1.51652 5.67414 1.51652 5.16888C1.51652 4.66362 1.92754 4.25941 2.44131 4.25941C2.95509 4.25941 3.36611 4.66362 3.36611 5.16888C3.36611 5.67414 2.95509 6.07835 2.44131 6.07835ZM2.44131 12.3099C1.92754 12.3099 1.51652 11.9057 1.51652 11.4005C1.51652 10.8952 1.92754 10.491 2.44131 10.491C2.95509 10.491 3.36611 10.8952 3.36611 11.4005C3.36611 11.9057 2.95509 12.3099 2.44131 12.3099ZM6.99678 2.06993C6.99678 1.56467 7.4078 1.16046 7.92157 1.16046C8.43535 1.16046 8.84637 1.56467 8.84637 2.06993C8.84637 2.57519 8.43535 2.9794 7.92157 2.9794C7.4078 2.9794 6.99678 2.57519 6.99678 2.06993ZM8.84637 14.4994C8.84637 15.0047 8.43535 15.4089 7.92157 15.4089C7.4078 15.4089 6.99678 15.0047 6.99678 14.4994C6.99678 13.9941 7.4078 13.5899 7.92157 13.5899C8.43535 13.5899 8.84637 13.9941 8.84637 14.4994ZM7.92157 10.2047C6.84265 10.2047 5.96923 9.34572 5.96923 8.28467C5.96923 7.22362 6.84265 6.36467 7.92157 6.36467C9.0005 6.36467 9.87392 7.22362 9.87392 8.28467C9.87392 9.34572 9.0005 10.2047 7.92157 10.2047ZM13.4018 12.3099C12.8881 12.3099 12.477 11.9057 12.477 11.4005C12.477 10.8952 12.8881 10.491 13.4018 10.491C13.9156 10.491 14.3266 10.8952 14.3266 11.4005C14.3266 11.9057 13.8985 12.3099 13.4018 12.3099Z" fill="#308099"/>
</svg>
