<svg width="28" height="28" viewBox="0 0 28 28" fill="none" xmlns="http://www.w3.org/2000/svg">
<rect width="28" height="28" rx="3" fill="#308099"/>
<path d="M21.8095 12.6177C21.6493 12.2307 21.3059 12.138 21.0736 12.1158V9.75759C21.0736 8.88298 20.3624 8.17173 19.4878 8.17173H14.7302V7.06955C14.972 6.85229 15.1266 6.53987 15.1266 6.1894C15.1266 5.87395 15.0013 5.57142 14.7783 5.34837C14.5552 5.12531 14.2527 5 13.9372 5C13.6218 5 13.3192 5.12531 13.0962 5.34837C12.8731 5.57142 12.7478 5.87395 12.7478 6.1894C12.7478 6.53987 12.9025 6.85229 13.1443 7.06955V8.17173H8.38672C7.51212 8.17173 6.80086 8.88298 6.80086 9.75759V12.134L6.73584 12.1388C6.536 12.1532 6.34902 12.2427 6.21251 12.3894C6.076 12.536 6.00008 12.7289 6 12.9293V14.5152C6 14.7255 6.08354 14.9272 6.23224 15.0759C6.38095 15.2245 6.58263 15.3081 6.79293 15.3081H6.80086V19.2728C6.80086 20.1474 7.51212 20.8586 8.38672 20.8586H19.4878C20.3624 20.8586 21.0736 20.1474 21.0736 19.2728V15.3081C21.2839 15.3081 21.4856 15.2245 21.6343 15.0759C21.783 14.9272 21.8665 14.7255 21.8665 14.5152V12.9785C21.8757 12.8554 21.8562 12.732 21.8095 12.6177ZM8.38672 19.2728V9.75759H19.4878L19.4885 12.9261L19.4878 12.9293V14.5152L19.4885 14.5191L19.4893 19.2728H8.38672Z" fill="white"/>
<path d="M10.7656 16.1012H17.1091V17.6871H10.7656V16.1012Z" fill="white"/>
<path d="M16.7128 14.5151C17.3697 14.5151 17.9022 13.8051 17.9022 12.9292C17.9022 12.0534 17.3697 11.3434 16.7128 11.3434C16.056 11.3434 15.5234 12.0534 15.5234 12.9292C15.5234 13.8051 16.056 14.5151 16.7128 14.5151Z" fill="white"/>
<path d="M11.1621 14.5151C11.8189 14.5151 12.3515 13.8051 12.3515 12.9292C12.3515 12.0534 11.8189 11.3434 11.1621 11.3434C10.5052 11.3434 9.97266 12.0534 9.97266 12.9292C9.97266 13.8051 10.5052 14.5151 11.1621 14.5151Z" fill="white"/>
</svg>
