<svg width="21" height="21" viewBox="0 0 21 21" fill="none" xmlns="http://www.w3.org/2000/svg">
<g clip-path="url(#clip0_180_201)">
<path d="M20.1131 16.2894C20.6885 15.2137 20.9929 14.0138 20.9999 12.7939C21.0068 11.574 20.7161 10.3708 20.153 9.28856C19.5899 8.20636 18.7714 7.27782 17.7683 6.58343C16.7653 5.88905 15.608 5.44978 14.3968 5.30369C13.9989 4.37267 13.4166 3.53186 12.685 2.83193C11.9534 2.132 11.0876 1.58745 10.1399 1.2311C9.19216 0.874749 8.1821 0.713974 7.17058 0.758466C6.15906 0.802958 5.16702 1.0518 4.25425 1.48998C3.34148 1.92817 2.52688 2.54663 1.85954 3.30809C1.19221 4.06955 0.685961 4.95824 0.371308 5.92061C0.0566547 6.88298 -0.0598871 7.89909 0.0287062 8.90771C0.117299 9.91633 0.409193 10.8966 0.886795 11.7893L0.306988 13.819C0.24265 14.0441 0.239669 14.2823 0.298355 14.5088C0.357042 14.7354 0.475259 14.9422 0.640756 15.1078C0.806252 15.2733 1.01301 15.3915 1.23959 15.4503C1.46617 15.509 1.70434 15.5061 1.92941 15.4418L3.95933 14.8618C4.78076 15.3015 5.67706 15.584 6.60216 15.6947C7.01113 16.6514 7.61459 17.5126 8.37422 18.2236C9.13384 18.9345 10.033 19.4798 11.0147 19.8246C11.9963 20.1695 13.0389 20.3064 14.0763 20.2268C15.1137 20.1471 16.1232 19.8525 17.0407 19.3618L19.0705 19.9418C19.2956 20.0061 19.5337 20.009 19.7603 19.9503C19.9869 19.8916 20.1936 19.7733 20.3591 19.6078C20.5246 19.4423 20.6428 19.2356 20.7015 19.009C20.7603 18.7824 20.7573 18.5443 20.693 18.3192L20.1131 16.2894ZM4.05473 13.3045C3.98503 13.3045 3.91567 13.3142 3.84864 13.3333L1.84198 13.9067L2.41528 11.8999C2.44336 11.8017 2.45105 11.6987 2.43789 11.5973C2.42473 11.496 2.39099 11.3984 2.33874 11.3106C1.59351 10.0539 1.33263 8.56842 1.6051 7.13303C1.87757 5.69764 2.66464 4.41108 3.81853 3.51492C4.97242 2.61875 6.41376 2.17462 7.87192 2.26592C9.33008 2.35722 10.7048 2.97766 11.7379 4.01076C12.771 5.04386 13.3914 6.41854 13.4827 7.87671C13.574 9.33487 13.1299 10.7762 12.2337 11.9301C11.3375 13.084 10.051 13.8711 8.6156 14.1435C7.18021 14.416 5.69473 14.1551 4.43806 13.4099C4.32209 13.3409 4.18966 13.3045 4.05473 13.3045ZM18.6612 15.8105C18.6089 15.8984 18.5752 15.996 18.562 16.0973C18.5489 16.1987 18.5566 16.3016 18.5846 16.3999L19.158 18.4068L17.1512 17.8334C17.0529 17.8054 16.9499 17.7977 16.8486 17.8108C16.7473 17.824 16.6497 17.8577 16.5618 17.91C15.8754 18.3168 15.1148 18.5826 14.3245 18.6921C13.5341 18.8015 12.7299 18.7522 11.9588 18.5472C11.1877 18.3422 10.4652 17.9856 9.83353 17.4981C9.20187 17.0106 8.67372 16.4021 8.27997 15.7081C9.3073 15.6018 10.3016 15.2842 11.2003 14.7753C12.099 14.2663 12.8828 13.5771 13.5024 12.7507C14.122 11.9244 14.564 10.9789 14.8007 9.97353C15.0374 8.96819 15.0636 7.92477 14.8778 6.90881C15.7941 7.12528 16.6467 7.5543 17.3666 8.1612C18.0865 8.76809 18.6535 9.53584 19.0218 10.4024C19.3901 11.2689 19.5493 12.21 19.4867 13.1495C19.424 14.089 19.1412 15.0005 18.6612 15.8105Z" fill="#999999"/>
</g>
<defs>
<clipPath id="clip0_180_201">
<rect width="21" height="21" fill="blue"/>
</clipPath>
</defs>
</svg>
