<svg width="64" height="64" viewBox="0 0 28 28" fill="none" xmlns="http://www.w3.org/2000/svg">
 <rect x="0.5" y="0.5" width="27" height="27" rx="2.5" stroke="#308099"/>
    <path fill-rule="evenodd" clip-rule="evenodd" d="M14.35 7.64406C12.6134 7.64406 11.2017 8.92893 11.2017 10.5081C11.2017 12.0872 12.6134 13.3714 14.35 13.3714C16.0859 13.3714 17.4976 12.0872 17.4976 10.5081C17.4976 8.92893 16.0859 7.64406 14.35 7.64406ZM14.35 14.4148C11.981 14.4148 10.0547 12.6625 10.0547 10.5081C10.0547 8.35363 11.981 6.60059 14.35 6.60059C16.7183 6.60059 18.6446 8.35363 18.6446 10.5081C18.6446 12.6625 16.7183 14.4148 14.35 14.4148Z" fill="#308099"/>
    <path fill-rule="evenodd" clip-rule="evenodd" d="M14.3992 14.4151C11.7755 14.4151 9.6412 16.3566 9.6412 18.7441V19.6443C9.6412 20.1236 10.0702 20.5138 10.5971 20.5138H18.2021C18.729 20.5138 19.158 20.1236 19.158 19.6443V18.7441C19.158 16.3566 17.0237 14.4151 14.3992 14.4151ZM18.2021 21.5573H10.5971C9.43779 21.5573 8.49414 20.6989 8.49414 19.6443V18.7441C8.49414 15.782 11.1431 13.3716 14.3992 13.3716C17.6553 13.3716 20.305 15.782 20.305 18.7441V19.6443C20.305 20.6989 19.3606 21.5573 18.2021 21.5573Z" fill="#308099"/>
  <path d="M8 11L4 13V16C4 18.20915 5.79086 20 8 21C10.20915 20 12 18.20915 12 16V13L8 11Z" stroke="#308099" fill="white"/>
<path d="M6 16L7.5 17.5L10 14.5" stroke="#308099" stroke-linecap="round" stroke-linejoin="round"/>
</svg>
