<svg width="21" height="21" viewBox="0 0 21 21" fill="none" xmlns="http://www.w3.org/2000/svg">
<g clip-path="url(#clip0_180_240)">
<mask id="mask0_180_240" style="mask-type:luminance" maskUnits="userSpaceOnUse" x="0" y="0" width="21" height="21">
<path d="M21 0H0V21H21V0Z" fill="white"/>
</mask>
<g mask="url(#mask0_180_240)">
<path d="M11.159 21H9.84101C8.77505 21 7.90777 20.1328 7.90777 19.0668V18.621C7.45459 18.4762 7.01429 18.2934 6.5913 18.0744L6.27531 18.3905C5.50999 19.1567 4.28408 19.1343 3.54101 18.3902L2.6095 17.4587C1.8651 16.7151 1.84369 15.4896 2.60974 14.7244L2.92548 14.4086C2.70659 13.9857 2.52386 13.5454 2.37902 13.0922H1.93319C0.867274 13.0922 0 12.2249 0 11.159V9.84101C0 8.77505 0.867274 7.90781 1.93323 7.90781H2.37908C2.5239 7.45459 2.70662 7.01433 2.92552 6.59134L2.60954 6.27539C1.84394 5.51061 1.86506 4.28498 2.60979 3.54109L3.54137 2.60954C4.28618 1.86371 5.5118 1.84509 6.27564 2.60979L6.59134 2.92548C7.01433 2.70662 7.45463 2.52386 7.90781 2.37902V1.93319C7.90781 0.867234 8.77505 0 9.84105 0H11.159C12.2249 0 13.0922 0.867234 13.0922 1.93319V2.37908C13.5454 2.52386 13.9857 2.70662 14.4086 2.92552L14.7247 2.60954C15.49 1.84329 16.7159 1.86576 17.459 2.60983L18.3905 3.54128C19.1348 4.28487 19.1563 5.51037 18.3902 6.2756L18.0744 6.59134C18.2934 7.01433 18.4761 7.45455 18.621 7.90781H19.0668C20.1327 7.90781 21 8.77505 21 9.84101V11.159C21 12.2249 20.1327 13.0922 19.0668 13.0922H18.621C18.4761 13.5454 18.2934 13.9857 18.0744 14.4086L18.3905 14.7247C19.1561 15.4895 19.1349 16.7151 18.3902 17.459L17.4586 18.3905C16.7138 19.1364 15.4882 19.155 14.7244 18.3902L14.4086 18.0746C13.9857 18.2934 13.5454 18.4762 13.0922 18.621V19.067C13.0922 20.1327 12.2249 21 11.159 21ZM6.79699 16.7824C7.38461 17.1298 8.01708 17.3925 8.67678 17.5627C8.94845 17.6328 9.13828 17.8778 9.13828 18.1584V19.0668C9.13828 19.4543 9.45357 19.7695 9.84105 19.7695H11.159C11.5465 19.7695 11.8617 19.4543 11.8617 19.0668V18.1584C11.8617 17.8778 12.0516 17.6328 12.3233 17.5627C12.983 17.3925 13.6155 17.1298 14.2031 16.7824C14.4448 16.6394 14.7526 16.6783 14.9513 16.8769L15.5947 17.5204C15.8722 17.7982 16.3177 17.7917 16.5883 17.5207L17.5204 16.5886C17.7904 16.319 17.7995 15.8734 17.5207 15.595L16.877 14.9512C16.6783 14.7526 16.6395 14.4447 16.7824 14.203C17.13 13.6155 17.3925 12.983 17.5627 12.3232C17.6329 12.0515 17.878 11.8617 18.1584 11.8617H19.0668C19.4543 11.8617 19.7695 11.5465 19.7695 11.159V9.84105C19.7695 9.45357 19.4543 9.13832 19.0668 9.13832H18.1584C17.8778 9.13832 17.6329 8.94851 17.5627 8.67686C17.3925 8.01712 17.13 7.38466 16.7824 6.79707C16.6395 6.55532 16.6783 6.24746 16.877 6.04887L17.5204 5.40536C17.7987 5.12753 17.7913 4.68209 17.5207 4.41176L16.5887 3.47969C16.3184 3.20914 15.8728 3.20123 15.595 3.47944L14.9513 4.12318C14.7528 4.32181 14.4448 4.3607 14.2031 4.21772C13.6155 3.8702 12.983 3.60766 12.3233 3.4374C12.0516 3.3673 11.8618 3.12228 11.8618 2.84168V1.93319C11.8618 1.54572 11.5465 1.23047 11.159 1.23047H9.84109C9.45361 1.23047 9.13832 1.54572 9.13832 1.93319V2.8416C9.13832 3.12219 8.94851 3.36722 8.67682 3.43732C8.01712 3.60758 7.38466 3.87012 6.79703 4.21764C6.5552 4.36057 6.24738 4.32169 6.04877 4.1231L5.40532 3.4796C5.1279 3.20184 4.68234 3.20829 4.41176 3.47932L3.4796 4.41143C3.20964 4.68107 3.20061 5.12663 3.47936 5.40503L4.1231 6.04877C4.32169 6.24738 4.36057 6.55524 4.21764 6.79699C3.87012 7.38457 3.60762 8.01704 3.43736 8.67678C3.36722 8.94845 3.12219 9.13824 2.84164 9.13824H1.93323C1.54576 9.13828 1.23047 9.45353 1.23047 9.84101V11.159C1.23047 11.5465 1.54576 11.8617 1.93323 11.8617H2.8416C3.12219 11.8617 3.36718 12.0515 3.43732 12.3232C3.60758 12.9829 3.87012 13.6153 4.2176 14.203C4.36053 14.4447 4.32166 14.7526 4.12306 14.9512L3.47956 15.5947C3.2014 15.8725 3.20866 16.3179 3.47932 16.5883L4.41139 17.5203C4.68157 17.7909 5.12716 17.7988 5.40499 17.5206L6.0487 16.8769C6.19504 16.7306 6.4995 16.6064 6.79699 16.7824Z" fill="#308099"/>
<path d="M10.5011 15.0692C7.98156 15.0692 5.93188 13.0195 5.93188 10.5C5.93188 7.98063 7.98156 5.93091 10.5011 5.93091C13.0205 5.93091 15.0701 7.98063 15.0701 10.5C15.0701 13.0195 13.0205 15.0692 10.5011 15.0692ZM10.5011 7.16138C8.66003 7.16138 7.16235 8.6591 7.16235 10.5C7.16235 12.341 8.66009 13.8387 10.5011 13.8387C12.342 13.8387 13.8397 12.341 13.8397 10.5C13.8397 8.6591 12.342 7.16138 10.5011 7.16138Z" fill="#308099"/>
</g>
</g>
<defs>
<clipPath id="clip0_180_240">
<rect width="21" height="21" fill="white"/>
</clipPath>
</defs>
</svg>
