<svg width="30" height="30" viewBox="0 0 30 30" fill="none" xmlns="http://www.w3.org/2000/svg">
<circle cx="15" cy="15" r="15" fill="#E9EBEF"/>
<path d="M15.7437 10.4632C16.0854 10.1285 16.0854 9.58579 15.7437 9.25105C15.402 8.91632 14.848 8.91632 14.5063 9.25105L9.25628 14.3939C8.92503 14.7184 8.91344 15.2409 9.22999 15.5792L14.0425 20.722C14.369 21.071 14.9225 21.0946 15.2788 20.7747C15.635 20.4548 15.6591 19.9126 15.3325 19.5637L11.0861 15.0258L15.7437 10.4632Z" fill="#308099"/>
<path d="M21.7437 10.4632C22.0854 10.1285 22.0854 9.58579 21.7437 9.25105C21.402 8.91632 20.848 8.91632 20.5063 9.25105L15.2563 14.3939C14.925 14.7184 14.9134 15.2409 15.23 15.5792L20.0425 20.722C20.369 21.071 20.9225 21.0946 21.2788 20.7747C21.635 20.4548 21.6591 19.9126 21.3325 19.5637L17.0861 15.0258L21.7437 10.4632Z" fill="#308099"/>
</svg>
